<svg xmlns="http://www.w3.org/2000/svg" viewBox="0 0 620 540" data-diagram="true">
  <!-- מפת מעגלי תמיכה (מקור: שקף 11): עיגול אחד בארבעה רבעים — בני משפחה, אנשים בבית הספר, חברים, שכנים ומכרים — והשם במרכז -->
  <g filter="url(#rough)">
    <path d="M310 270 L310 34 A236 236 0 0 1 546 270 Z" fill="#e6f2f1"/>
    <path d="M310 270 L74 270 A236 236 0 0 1 310 34 Z" fill="#fdf0dd"/>
    <path d="M310 270 L546 270 A236 236 0 0 1 310 506 Z" fill="#eeecf7"/>
    <path d="M310 270 L310 506 A236 236 0 0 1 74 270 Z" fill="#e7f1ec"/>
    <circle cx="310" cy="270" r="236" fill="none" stroke="#13100e" stroke-width="5"/>
    <g stroke="#13100e" stroke-width="4" stroke-linecap="round">
      <line x1="310" y1="34" x2="310" y2="506"/>
      <line x1="74" y1="270" x2="546" y2="270"/>
    </g>
    <circle cx="310" cy="270" r="64" fill="#ffffff" stroke="#63b1af" stroke-width="7"/>
  </g>
  <g text-anchor="middle" dominant-baseline="middle" fill="#13100e" font-family="Secular One, Arial Hebrew, sans-serif" font-size="34">
    <text x="310" y="272" font-size="42">אני</text>
    <text x="428" y="160">משפחה</text>
    <text x="192" y="160">בית ספר</text>
    <text x="428" y="382">חברים</text>
    <text x="192" y="382">שכנים</text>
  </g>
</svg>
