<svg xmlns="http://www.w3.org/2000/svg" viewBox="0 0 620 540" data-diagram="true">
  <!-- לוח הזמנים השבועי שלי (מקור: שקפים 21–22): ראשון–שישי, מימין לשמאל. בכל יום — שתי משימות חשובות ודחופות (אדום), אחת חשובה ולא דחופה (צהוב), ושני דברים שאוהבים (ירוק) -->
  <g filter="url(#rough)">
    <g stroke="#13100e" stroke-width="4" stroke-linejoin="round">
      <rect x="512" y="36" width="90" height="62" rx="12" fill="#eeecf7"/>
      <rect x="512" y="108" width="90" height="396" rx="12" fill="#ffffff"/>
      <rect x="414" y="36" width="90" height="62" rx="12" fill="#eeecf7"/>
      <rect x="414" y="108" width="90" height="396" rx="12" fill="#ffffff"/>
      <rect x="316" y="36" width="90" height="62" rx="12" fill="#eeecf7"/>
      <rect x="316" y="108" width="90" height="396" rx="12" fill="#ffffff"/>
      <rect x="218" y="36" width="90" height="62" rx="12" fill="#eeecf7"/>
      <rect x="218" y="108" width="90" height="396" rx="12" fill="#ffffff"/>
      <rect x="120" y="36" width="90" height="62" rx="12" fill="#eeecf7"/>
      <rect x="120" y="108" width="90" height="396" rx="12" fill="#ffffff"/>
      <rect x="22" y="36" width="90" height="62" rx="12" fill="#eeecf7"/>
      <rect x="22" y="108" width="90" height="396" rx="12" fill="#ffffff"/>
    </g>
    <rect x="524" y="124" width="66" height="60" rx="10" fill="#e57373"/>
    <rect x="524" y="198" width="66" height="60" rx="10" fill="#619f88"/>
    <rect x="524" y="272" width="66" height="60" rx="10" fill="#e57373"/>
    <rect x="524" y="346" width="66" height="60" rx="10" fill="#f7ae4d"/>
    <rect x="524" y="420" width="66" height="60" rx="10" fill="#619f88"/>
    <rect x="426" y="124" width="66" height="60" rx="10" fill="#e57373"/>
    <rect x="426" y="198" width="66" height="60" rx="10" fill="#e57373"/>
    <rect x="426" y="272" width="66" height="60" rx="10" fill="#f7ae4d"/>
    <rect x="426" y="346" width="66" height="60" rx="10" fill="#619f88"/>
    <rect x="426" y="420" width="66" height="60" rx="10" fill="#619f88"/>
    <rect x="328" y="124" width="66" height="60" rx="10" fill="#619f88"/>
    <rect x="328" y="198" width="66" height="60" rx="10" fill="#e57373"/>
    <rect x="328" y="272" width="66" height="60" rx="10" fill="#f7ae4d"/>
    <rect x="328" y="346" width="66" height="60" rx="10" fill="#e57373"/>
    <rect x="328" y="420" width="66" height="60" rx="10" fill="#619f88"/>
    <rect x="230" y="124" width="66" height="60" rx="10" fill="#e57373"/>
    <rect x="230" y="198" width="66" height="60" rx="10" fill="#f7ae4d"/>
    <rect x="230" y="272" width="66" height="60" rx="10" fill="#619f88"/>
    <rect x="230" y="346" width="66" height="60" rx="10" fill="#e57373"/>
    <rect x="230" y="420" width="66" height="60" rx="10" fill="#619f88"/>
    <rect x="132" y="124" width="66" height="60" rx="10" fill="#e57373"/>
    <rect x="132" y="198" width="66" height="60" rx="10" fill="#619f88"/>
    <rect x="132" y="272" width="66" height="60" rx="10" fill="#e57373"/>
    <rect x="132" y="346" width="66" height="60" rx="10" fill="#619f88"/>
    <rect x="132" y="420" width="66" height="60" rx="10" fill="#f7ae4d"/>
    <rect x="34" y="124" width="66" height="60" rx="10" fill="#f7ae4d"/>
    <rect x="34" y="198" width="66" height="60" rx="10" fill="#e57373"/>
    <rect x="34" y="272" width="66" height="60" rx="10" fill="#619f88"/>
    <rect x="34" y="346" width="66" height="60" rx="10" fill="#e57373"/>
    <rect x="34" y="420" width="66" height="60" rx="10" fill="#619f88"/>
  </g>
  <g text-anchor="middle" dominant-baseline="middle" font-family="Secular One, Arial Hebrew, sans-serif" fill="#13100e" font-size="40">
    <text x="557" y="69">א׳</text>
    <text x="459" y="69">ב׳</text>
    <text x="361" y="69">ג׳</text>
    <text x="263" y="69">ד׳</text>
    <text x="165" y="69">ה׳</text>
    <text x="67" y="69">ו׳</text>
  </g>
</svg>
