<svg xmlns="http://www.w3.org/2000/svg" viewBox="0 0 620 540">
  <!-- לוח השמחה שלי: לוח של 4 על 5 — במשבצות סמלים קטנים, חמש משבצות מוקפות בעיגול, השורה האחרונה ריקה לכתיבה — ועיפרון -->
  <g filter="url(#rough)">
    <rect x="176" y="34" width="400" height="460" rx="16" fill="#ffffff" stroke="#13100e" stroke-width="5"/>
    <rect x="184" y="408" width="384" height="78" rx="10" fill="#fdf0dd"/>
    <g stroke="#847c74" stroke-width="3" opacity=".55" stroke-linecap="round">
      <line x1="276" y1="44" x2="276" y2="484"/>
      <line x1="376" y1="44" x2="376" y2="484"/>
      <line x1="476" y1="44" x2="476" y2="484"/>
      <line x1="186" y1="126" x2="566" y2="126"/>
      <line x1="186" y1="218" x2="566" y2="218"/>
      <line x1="186" y1="310" x2="566" y2="310"/>
      <line x1="186" y1="402" x2="566" y2="402"/>
    </g>
    <g stroke="#847c74" stroke-width="5" stroke-linecap="round" opacity=".7">
      <path d="M500 462 H552"/>
      <path d="M400 462 H452"/>
      <path d="M300 462 H352"/>
      <path d="M200 462 H252"/>
    </g>
    <use href="#heart" x="496" y="53" width="60" height="54" color="#e57373"/>
    <use href="#star" x="296" y="142" width="60" height="60" color="#f7ae4d"/>
    <use href="#sun" x="396" y="234" width="60" height="60" color="#f7ae4d"/>
    <use href="#heart" x="196" y="329" width="60" height="54" color="#e57373"/>
    <g fill="none" stroke="#f7ae4d" stroke-width="6">
      <ellipse cx="526" cy="80" rx="44" ry="40"/>
      <ellipse cx="326" cy="172" rx="44" ry="40"/>
      <ellipse cx="426" cy="264" rx="44" ry="40"/>
      <ellipse cx="226" cy="356" rx="44" ry="40"/>
      <ellipse cx="526" cy="172" rx="44" ry="40"/>
    </g>
    <use href="#pencil" x="20" y="330" width="170" height="170" color="#f7ae4d"/>
  </g>
</svg>
